# xmcd
#
# Track frame offsets: 
#        150
#        41928
#        67208
#        109938
#        145175
#        187021
#        220976
#        255641
#        287167
#        319606
#
# Disc length: 4769 seconds
#
# Revision: 0
# Processed by: cddbd v1.5PL3 Copyright (c) Steve Scherf et al.
# Submitted via: ExactAudioCopy v0.95a5
#
DISCID=a6129f0a
DTITLE=Robert Plant and Strange Sensation - Nandrin Festival 11 August 2
DTITLE=001
DYEAR=1900
DGENRE=
TTITLE0=If I Ever Get Lucky
TTITLE1=Morning Dew
TTITLE2=In The Light
TTITLE3=Season Of The Witch
TTITLE4=Hey Joe
TTITLE5=7 and 7 Is
TTITLE6=A House Is Not A Motel
TTITLE7=Babe I'm Gonna Leave You
TTITLE8=I'm In The Mood
TTITLE9=You Need Love - Whole Lotta Love
EXTD=
EXTT0=
EXTT1=
EXTT2=
EXTT3=
EXTT4=
EXTT5=
EXTT6=
EXTT7=
EXTT8=
EXTT9=
PLAYORDER=
